<svg id="visual" viewBox="0 0 960 540" width="960" height="540" xmlns="http://www.w3.org/2000/svg" xmlns:xlink="http://www.w3.org/1999/xlink" version="1.1"><rect x="0" y="0" width="960" height="540" fill="#fff"></rect><path d="M0 348L137 348L137 329L274 329L274 262L411 262L411 318L549 318L549 296L686 296L686 266L823 266L823 280L960 280L960 273L960 0L960 0L823 0L823 0L686 0L686 0L549 0L549 0L411 0L411 0L274 0L274 0L137 0L137 0L0 0Z" fill="#9900ff"></path><path d="M0 267L137 267L137 267L274 267L274 222L411 222L411 218L549 218L549 259L686 259L686 224L823 224L823 285L960 285L960 218L960 0L960 0L823 0L823 0L686 0L686 0L549 0L549 0L411 0L411 0L274 0L274 0L137 0L137 0L0 0Z" fill="#8800e2"></path><path d="M0 181L137 181L137 163L274 163L274 174L411 174L411 237L549 237L549 155L686 155L686 183L823 183L823 225L960 225L960 230L960 0L960 0L823 0L823 0L686 0L686 0L549 0L549 0L411 0L411 0L274 0L274 0L137 0L137 0L0 0Z" fill="#7700c6"></path><path d="M0 162L137 162L137 145L274 145L274 111L411 111L411 126L549 126L549 103L686 103L686 131L823 131L823 100L960 100L960 112L960 0L960 0L823 0L823 0L686 0L686 0L549 0L549 0L411 0L411 0L274 0L274 0L137 0L137 0L0 0Z" fill="#6600ab"></path><path d="M0 63L137 63L137 37L274 37L274 100L411 100L411 79L549 79L549 61L686 61L686 36L823 36L823 104L960 104L960 79L960 0L960 0L823 0L823 0L686 0L686 0L549 0L549 0L411 0L411 0L274 0L274 0L137 0L137 0L0 0Z" fill="#560090"></path></svg>