<svg id="visual" viewBox="0 0 960 540" width="960" height="540" xmlns="http://www.w3.org/2000/svg" xmlns:xlink="http://www.w3.org/1999/xlink" version="1.1"><rect x="0" y="0" width="960" height="540" fill="#fff"></rect><path d="M563 0L571 0L571 77L449 77L449 154L535 154L535 231L551 231L551 309L619 309L619 386L551 386L551 463L583 463L583 540L0 540L0 463L0 463L0 386L0 386L0 309L0 309L0 231L0 231L0 154L0 154L0 77L0 77L0 0L0 0Z" fill="#9900ff"></path><path d="M401 0L434 0L434 77L384 77L384 154L490 154L490 231L333 231L333 309L464 309L464 386L353 386L353 463L334 463L334 540L0 540L0 463L0 463L0 386L0 386L0 309L0 309L0 231L0 231L0 154L0 154L0 77L0 77L0 0L0 0Z" fill="#8200d9"></path><path d="M363 0L372 0L372 77L290 77L290 154L335 154L335 231L291 231L291 309L257 309L257 386L300 386L300 463L340 463L340 540L0 540L0 463L0 463L0 386L0 386L0 309L0 309L0 231L0 231L0 154L0 154L0 77L0 77L0 0L0 0Z" fill="#6c00b4"></path><path d="M185 0L100 0L100 77L114 77L114 154L212 154L212 231L99 231L99 309L216 309L216 386L185 386L185 463L111 463L111 540L0 540L0 463L0 463L0 386L0 386L0 309L0 309L0 231L0 231L0 154L0 154L0 77L0 77L0 0L0 0Z" fill="#560090"></path></svg>